<svg width="200" height="40" viewBox="0 0 200 40" fill="none" xmlns="http://www.w3.org/2000/svg">
<path d="M51.0332 16.668V6.66797H53.3665L56.4999 10.8837L59.4665 6.66797H61.6665V16.668H59.3332V10.2954L56.4999 14.1843H56.1665L53.3332 10.3608V16.668H51.0332Z" fill="#006747"/>
<path d="M64.1641 16.668V6.66797H70.1974V8.82483H66.4974V10.5895H69.7641V12.7137H66.4974V14.5111H70.3641V16.668H64.1641Z" fill="#006747"/>
<path d="M74.8333 16.666H72.5V6.53524H75.6C76.7304 6.44008 77.8541 6.77998 78.7333 7.48295C79.0463 7.79218 79.293 8.15964 79.459 8.56371C79.625 8.96779 79.707 9.40032 79.7 9.83589C79.7028 10.2816 79.6126 10.7232 79.4349 11.1334C79.2572 11.5437 78.9957 11.914 78.6667 12.2215C78.2991 12.553 77.8685 12.8102 77.3995 12.9784C76.9305 13.1467 76.4323 13.2226 75.9333 13.2019H74.8L74.8333 16.666ZM74.8333 8.82282V11.1104H75.9C76.0828 11.1369 76.2694 11.1217 76.4452 11.0659C76.621 11.0101 76.7813 10.9152 76.9136 10.7887C77.0459 10.6622 77.1466 10.5074 77.2078 10.3365C77.269 10.1655 77.2892 9.98304 77.2667 9.80321C77.2667 9.0189 76.8 8.65942 75.8667 8.65942H74.8333" fill="#006747"/>
<path d="M81.5 16.668V6.66797H87.5667V8.82483H83.8333V10.5895H87.1V12.7137H83.8333V14.5111H87.7V16.668H81.5Z" fill="#006747"/>
<path d="M92.6668 11.4719L89.1335 6.66797H91.8335L94.9001 11.0471V6.66797H97.2335V11.0471L100.3 6.66797H102.967L99.4335 11.4392L103.133 16.668H100.467L97.2335 11.8967V16.668H94.9001V11.8967L91.6668 16.668H88.9668L92.6668 11.4719Z" fill="#006747"/>
<path d="M104.031 16.6659L108.265 6.53516H110.331L114.565 16.6659H112.065L111.231 14.5744H107.198L106.365 16.6659H104.031ZM109.231 9.60705L108.098 12.4175H110.365L109.231 9.60705Z" fill="#006747"/>
<path d="M118.068 16.6659L122.268 6.53516H124.335L128.602 16.6659H126.102L125.268 14.5744H121.235L120.402 16.6659H118.068ZM123.335 9.60705L122.202 12.4175H124.468L123.335 9.60705Z" fill="#006747"/>
<path d="M136.002 16.668V8.82483H132.435V16.668H130.102V6.66797H138.302V16.668H136.002Z" fill="#006747"/>
<path d="M139.898 8.82483V6.66797H148.332V8.82483H145.265V16.668H142.932V8.82483H139.898Z" fill="#006747"/>
<path d="M149.9 16.668V6.66797H155.934V8.82483H152.234V10.5895H155.5V12.7137H152.234V14.5111H156.067V16.668H149.9Z" fill="#006747"/>
<path d="M158.232 16.668V6.66797H160.566V11.0471L163.866 6.66797H166.666L162.866 11.2758L166.966 16.668H164.032L160.566 11.9294V16.668H158.232Z" fill="#006747"/>
<path d="M58.8999 33.3333V22.8758H54.1332V33.3333H51.0332V20H61.9999V33.3333H58.8999Z" fill="#00AD6F"/>
<path d="M65.8568 21.9979C66.545 21.3343 67.3641 20.8153 68.2639 20.4725C69.1637 20.1298 70.1254 19.9705 71.0901 20.0045C72.9664 19.9648 74.7844 20.6449 76.1568 21.8999C76.8384 22.544 77.3722 23.323 77.7228 24.1852C78.0734 25.0473 78.2327 25.9727 78.1901 26.8999C78.2279 27.8217 78.0663 28.7408 77.7158 29.597C77.3654 30.4531 76.834 31.2268 76.1568 31.8672C75.4697 32.5095 74.6589 33.0109 73.7717 33.3419C72.8845 33.673 71.9388 33.8272 70.9901 33.7953C69.0693 33.8626 67.1995 33.1811 65.7901 31.8999C65.1085 31.2558 64.5746 30.4768 64.224 29.6147C63.8734 28.7525 63.7141 27.8271 63.7568 26.8999C63.7241 25.9914 63.8851 25.0862 64.2294 24.2421C64.5738 23.3981 65.094 22.6337 65.7568 21.9979H65.8568ZM68.2901 29.645C69.0449 30.3754 70.0628 30.785 71.1234 30.785C72.184 30.785 73.2019 30.3754 73.9568 29.645C74.6573 28.8348 75.0256 27.7981 74.9901 26.7365C75.0137 26.2015 74.9254 25.6675 74.7305 25.1673C74.5355 24.6671 74.2382 24.2113 73.8568 23.828C73.4923 23.465 73.0558 23.1791 72.5742 22.988C72.0926 22.7969 71.5762 22.7046 71.0568 22.7169C70.5371 22.7026 70.0201 22.794 69.5382 22.9852C69.0563 23.1765 68.62 23.4634 68.2568 23.828C67.5328 24.6242 67.1328 25.6536 67.1328 26.7202C67.1328 27.7868 67.5328 28.8161 68.2568 29.6123" fill="#00AD6F"/>
<path d="M80 35.6209V30.4902H81.4667C82.0208 29.624 82.4262 28.6746 82.6667 27.6797C83.0884 26.0445 83.3122 24.3663 83.3333 22.6797V20H92.2V30.4575H94.0333V35.6209H91.1333V33.3333H82.8V35.6209H80ZM86.3333 25.098C86.2253 26.2042 86.0133 27.2981 85.7 28.366C85.5367 29.102 85.2555 29.8079 84.8667 30.4575H89.3V22.8758H86.5333L86.3333 25.098Z" fill="#00AD6F"/>
<path d="M97.3349 21.7646C98.0231 21.101 98.8422 20.5819 99.742 20.2392C100.642 19.8964 101.603 19.7372 102.568 19.7711C103.52 19.7342 104.469 19.8828 105.362 20.2081C106.254 20.5335 107.072 21.0292 107.768 21.6666C108.45 22.3107 108.984 23.0897 109.334 23.9518C109.685 24.8139 109.844 25.7394 109.802 26.6666C109.83 27.5853 109.661 28.4997 109.305 29.35C108.949 30.2003 108.414 30.9674 107.735 31.6012C107.048 32.2435 106.237 32.7448 105.35 33.0759C104.463 33.407 103.517 33.5611 102.568 33.5293C100.647 33.5966 98.7777 32.915 97.3682 31.6339C96.6866 30.9898 96.1528 30.2107 95.8022 29.3486C95.4516 28.4865 95.2923 27.5611 95.3349 26.6339C95.3022 25.7254 95.4632 24.8202 95.8076 23.9761C96.1519 23.1321 96.6721 22.3677 97.3349 21.7319V21.7646ZM99.7682 29.4117C100.523 30.1421 101.541 30.5517 102.602 30.5517C103.662 30.5517 104.68 30.1421 105.435 29.4117C106.135 28.6014 106.504 27.5648 106.468 26.5032C106.492 25.9682 106.403 25.4341 106.209 24.9339C106.014 24.4337 105.716 23.9779 105.335 23.5947C104.97 23.2316 104.534 22.9457 104.052 22.7546C103.571 22.5635 103.054 22.4713 102.535 22.4836C102.015 22.4693 101.498 22.5607 101.016 22.7519C100.534 22.9431 100.098 23.2301 99.7349 23.5947C99.011 24.3909 98.6109 25.4202 98.6109 26.4868C98.6109 27.5534 99.011 28.5828 99.7349 29.379" fill="#00AD6F"/>
<path d="M115.233 33.3344H112.133V20.0011H116.299C117.811 19.8635 119.318 20.309 120.499 21.2429C120.945 21.6629 121.291 22.1726 121.516 22.7368C121.74 23.3011 121.837 23.9064 121.799 24.5109C121.82 25.1193 121.708 25.725 121.473 26.2883C121.237 26.8515 120.883 27.3595 120.433 27.7788C119.94 28.2235 119.362 28.568 118.733 28.7923C118.104 29.0167 117.435 29.1165 116.766 29.086H115.266L115.233 33.3344ZM115.233 22.8769V25.9161L116.666 26.1449C116.901 26.1791 117.14 26.1618 117.367 26.0942C117.594 26.0266 117.803 25.9104 117.978 25.754C118.153 25.5976 118.291 25.405 118.381 25.19C118.472 24.975 118.512 24.743 118.499 24.5109C118.499 23.4978 117.866 22.9749 116.599 22.9749H115.233" fill="#00AD6F"/>
<path d="M125.501 21.7646C126.189 21.101 127.008 20.5819 127.908 20.2392C128.808 19.8964 129.77 19.7372 130.734 19.7711C131.686 19.7342 132.635 19.8828 133.528 20.2081C134.42 20.5335 135.238 21.0292 135.934 21.6666C136.616 22.3107 137.15 23.0897 137.5 23.9518C137.851 24.8139 138.01 25.7394 137.968 26.6666C137.996 27.5853 137.827 28.4997 137.471 29.35C137.115 30.2003 136.58 30.9674 135.901 31.6012C135.214 32.2435 134.403 32.7448 133.516 33.0759C132.629 33.407 131.683 33.5611 130.734 33.5293C128.813 33.5966 126.944 32.915 125.534 31.6339C124.827 31.0081 124.264 30.241 123.885 29.3841C123.505 28.5272 123.318 27.6006 123.334 26.6666C123.302 25.7581 123.463 24.8528 123.807 24.0088C124.151 23.1647 124.671 22.4004 125.334 21.7646H125.501ZM127.934 29.4117C128.689 30.1421 129.707 30.5517 130.768 30.5517C131.828 30.5517 132.846 30.1421 133.601 29.4117C134.301 28.6014 134.67 27.5648 134.634 26.5032C134.658 25.9682 134.57 25.4341 134.375 24.9339C134.18 24.4337 133.882 23.9779 133.501 23.5947C133.136 23.2316 132.7 22.9457 132.218 22.7546C131.737 22.5635 131.22 22.4713 130.701 22.4836C130.181 22.4693 129.664 22.5607 129.182 22.7519C128.7 22.9431 128.264 23.2301 127.901 23.5947C127.177 24.3909 126.777 25.4202 126.777 26.4868C126.777 27.5534 127.177 28.5828 127.901 29.379" fill="#00AD6F"/>
<path d="M142.998 26.3725L138.264 20H141.831L145.964 25.8497V20H149.064V25.8497L153.198 20H156.764L152.031 26.3725L156.964 33.3333H153.398L149.064 26.9608V33.3333H145.964V26.9608L141.631 33.3333H138.064L142.998 26.3725Z" fill="#00AD6F"/>
<path d="M166.934 33.3333V27.9739H162.001V33.3333H158.867V20H162.001V25.098H166.934V20H170.067V33.3333H166.934Z" fill="#00AD6F"/>
<path d="M175.966 33.3333H173.266V20H176.366V28.3007L182.399 20H185.099V33.3333H181.999V25.0654L175.966 33.3333Z" fill="#00AD6F"/>
<path d="M188.299 33.3333V20H191.399V25.817L195.865 20H199.599L194.465 26.1765L199.999 33.3333H196.065L191.399 26.9935V33.3333H188.299Z" fill="#00AD6F"/>
<path d="M13.6 0V6.66667V13.3333H6.8H0V20H6.8H13.6H20.4333V13.3333V6.66667V0H13.6Z" fill="#006747"/>
<path d="M20.4008 40V33.4641C22.198 33.4641 23.9775 33.115 25.6362 32.4368C27.295 31.7585 28.8002 30.7647 30.0649 29.5127C31.3295 28.2607 32.3285 26.7754 33.004 25.1426C33.6796 23.5098 34.0184 21.7619 34.0008 20H40.6674C40.6674 22.6264 40.1398 25.2272 39.1146 27.6537C38.0894 30.0802 36.5867 32.285 34.6924 34.1421C32.7981 35.9993 30.5492 37.4725 28.0742 38.4776C25.5991 39.4827 22.9464 40 20.2674 40" fill="#8FD6BD"/>
<path d="M33.9996 13.332C28.5892 13.332 23.4004 15.4392 19.5746 19.1899C15.7489 22.9406 13.5996 28.0277 13.5996 33.332V39.868H20.2663V33.332C20.2662 31.57 20.6223 29.8255 21.3141 28.1992C22.0059 26.573 23.0196 25.0973 24.2966 23.8574C25.5737 22.6176 27.0887 21.6382 28.7542 20.9759C30.4196 20.3135 32.2024 19.9814 33.9996 19.9987H40.6663V13.4628L33.9996 13.332Z" fill="#00AD6F"/>
</svg>
