<svg width="24" height="24" viewBox="0 0 24 24" fill="none" xmlns="http://www.w3.org/2000/svg">
<g clip-path="url(#clip0_904_21307)">
<path d="M12.0001 24.0002C18.6276 24.0002 24.0002 18.6276 24.0002 12.0001C24.0002 5.37262 18.6276 0 12.0001 0C5.37262 0 0 5.37262 0 12.0001C0 18.6276 5.37262 24.0002 12.0001 24.0002Z" fill="#667085"/>
<path d="M18.2361 8.70055L14.816 11.2326C14.45 11.5086 13.952 11.5086 13.592 11.2386L11.2076 9.44396C10.1996 8.69395 8.77158 8.95195 8.09357 10.008L7.36756 11.142L4.90153 15.15C4.54153 15.714 5.23154 16.356 5.76554 15.954L9.18558 13.422C9.55159 13.146 10.0496 13.146 10.4096 13.416L12.794 15.2106C13.802 15.9606 15.23 15.7026 15.9081 14.6466L16.6341 13.5126L19.1001 9.50456C19.4601 8.94055 18.7701 8.29854 18.2361 8.70055Z" fill="#F2F4F7"/>
</g>
<defs>
<clipPath id="clip0_904_21307">
<rect width="24" height="24" fill="white"/>
</clipPath>
</defs>
</svg>
