<svg width="24" height="24" viewBox="0 0 24 24" fill="none" xmlns="http://www.w3.org/2000/svg">
<g clip-path="url(#clip0_904_21301)">
<path fill-rule="evenodd" clip-rule="evenodd" d="M12 24C18.6274 24 24 18.6274 24 12C24 5.37258 18.6274 0 12 0C5.37258 0 0 5.37258 0 12C0 18.6274 5.37258 24 12 24Z" fill="#667085"/>
<path d="M18.7572 8.8786C18.3972 7.4986 16.8972 6.0586 15.5172 5.7586C13.2972 5.3386 11.0172 5.3386 8.79718 5.7586C7.41718 6.0586 5.91719 7.4986 5.55719 8.8786C5.13719 10.7986 5.13719 12.7186 5.55719 14.5786C5.85719 15.8986 7.29719 17.2786 8.61719 17.6386V19.1386C8.61719 19.6786 9.27719 19.9786 9.63719 19.5586L11.1372 17.9386C11.4972 17.9386 11.7972 17.9386 12.1572 17.9386C13.2972 17.9386 14.3772 17.8186 15.5172 17.6386C16.8972 17.3386 18.3972 15.8986 18.7572 14.5186C19.1772 12.7186 19.1772 10.7986 18.7572 8.8786ZM17.5572 14.3386C17.3172 15.2386 16.1772 16.3186 15.2772 16.5586C14.0772 16.7986 12.8772 16.8586 11.6772 16.8586H11.6172C11.4372 17.0386 10.4772 17.9986 10.4772 17.9986L9.27719 19.1986C9.21719 19.3186 9.03719 19.1986 9.03719 19.0786V16.5586C9.03719 16.4986 9.03719 16.4986 8.97719 16.4986C8.07719 16.3186 6.93718 15.1786 6.69718 14.2786C6.33718 12.5386 6.33718 10.7986 6.69718 9.11861C6.93718 8.21861 8.07719 7.1386 8.97719 6.8986C11.0772 6.4786 13.1772 6.4786 15.2172 6.8986C16.1172 7.0786 17.2572 8.21861 17.4972 9.11861C17.9172 10.8586 17.9172 12.5986 17.5572 14.3386ZM14.6172 13.4386C14.4372 13.3186 14.1972 13.1386 14.0172 13.0186C13.8372 12.8986 13.5372 12.8986 13.3572 13.0186C13.1772 13.1986 13.0572 13.4986 12.7572 13.5586C12.5772 13.5586 12.4572 13.4986 12.2772 13.4386C11.3772 13.0786 10.7772 12.3586 10.4772 11.3986C10.4172 11.2786 10.4172 11.1586 10.4772 11.0386C10.5372 10.9786 10.5372 10.9186 10.5972 10.9186C10.6572 10.8586 10.7172 10.7986 10.7772 10.7986C11.0172 10.6186 11.0772 10.2586 10.9572 10.0186C10.7172 9.59861 10.4172 9.17861 10.1172 8.81861C9.93719 8.63861 9.75719 8.5786 9.57719 8.6986C9.33719 8.8186 9.09719 8.99861 8.85719 9.23861C8.67719 9.47861 8.43719 9.8386 8.61719 10.1386C8.73719 10.4986 8.91719 10.8586 9.03719 11.1586C9.39719 11.8786 9.81719 12.5386 10.3572 13.1386C11.3172 14.2186 12.4572 14.8786 13.7172 15.4186C13.8372 15.4786 13.9572 15.4786 14.1372 15.5386C14.2572 15.4786 14.3772 15.4786 14.4972 15.4186C14.8572 15.2386 15.1572 14.8786 15.3372 14.5186C15.4572 14.2786 15.3972 14.0986 15.2172 13.9186C14.9772 13.7386 14.7972 13.5586 14.6172 13.4386ZM12.1572 8.1586C12.0972 8.1586 13.8372 8.2186 12.1572 8.1586V8.1586ZM12.1572 8.1586C12.0972 8.1586 12.0972 8.1586 12.0372 8.1586C11.9172 8.1586 11.7972 8.2786 11.8572 8.3986C11.8572 8.5186 12.0372 8.5786 12.1572 8.5786C12.3372 8.5786 12.5172 8.57861 12.6972 8.63861C13.9572 8.87861 14.9172 9.8986 15.0972 11.1586C15.1572 11.3986 15.1572 11.6386 15.1572 11.8786C15.1572 11.9986 15.2172 12.1186 15.3372 12.1186C15.4572 12.1186 15.5172 11.9986 15.5172 11.8786C15.5172 11.5786 15.4572 11.2786 15.3972 11.0386C15.2172 9.3586 13.8372 8.2186 12.1572 8.1586ZM14.3172 11.4586C14.3172 11.5186 14.3172 11.5786 14.3172 11.6386C14.3772 11.8186 14.6172 11.7586 14.6772 11.6386C14.6772 11.5786 14.6772 11.5186 14.6772 11.5186C14.6772 11.3986 14.6772 11.3386 14.6772 11.2186C14.6772 11.1586 14.6772 11.1586 14.6772 11.0986C14.5572 10.3186 14.1372 9.7186 13.4772 9.3586C13.1172 9.1786 12.7572 9.1186 12.3972 9.0586C12.2772 9.0586 12.2172 9.11861 12.2172 9.23861C12.2172 9.35861 12.2772 9.41861 12.3972 9.41861C12.5172 9.41861 12.5772 9.4186 12.6972 9.4786C12.9372 9.5386 13.1172 9.5986 13.3572 9.6586C13.6572 9.8386 13.9572 10.0786 14.1372 10.4386C14.1972 10.7386 14.3172 11.0986 14.3172 11.4586ZM13.6572 11.4586C13.7172 11.4586 13.7772 11.3986 13.7772 11.3386C13.7772 11.2786 13.7772 11.2186 13.7772 11.1586C13.7172 10.3786 13.2372 10.0786 12.5772 10.0186C12.4572 10.0186 12.3972 10.0786 12.3372 10.1986C12.3372 10.3186 12.3972 10.3786 12.5172 10.4386C12.6372 10.4386 12.6972 10.4386 12.8172 10.4986C12.8772 10.4986 12.9972 10.5586 13.0572 10.6186C13.1772 10.7386 13.2972 10.8586 13.3572 11.0386C13.3572 11.0986 13.3572 11.2186 13.4172 11.2786C13.4172 11.3986 13.5372 11.4586 13.6572 11.4586C13.5972 11.4586 13.5372 11.4586 13.6572 11.4586Z" fill="white"/>
</g>
<defs>
<clipPath id="clip0_904_21301">
<rect width="24" height="24" fill="white"/>
</clipPath>
</defs>
</svg>
